<svg width="548" height="245" viewBox="0 0 548 245" fill="none" xmlns="http://www.w3.org/2000/svg">
<path d="M12 225V15H64.5V93.9H92.4L155.4 15H222L137.7 120L222 225H155.4L92.4 146.4H64.5V225H12ZM242.798 159.6V15H295.298V159.6C295.298 176.7 321.398 176.7 321.398 159.6V80.7C321.398 44.7 350.798 15 387.098 15C423.098 15 452.798 44.7 452.798 80.7V120C452.798 145.5 447.398 172.5 465.698 172.5C472.898 172.5 478.898 166.8 478.898 159.6V15H531.398V159.6C531.398 195.6 501.998 225 465.698 225C429.698 225 400.298 195.6 400.298 159.6V80.7C400.298 63.6 373.898 63.6 373.898 80.7V159.6C373.898 195.6 344.498 225 308.198 225C272.198 225 242.798 195.6 242.798 159.6Z" fill="#F2F2F0"/>
</svg>
